<?xml version="1.0" encoding="UTF-8" standalone="no"?>
<!-- Created with Inkscape (http://www.inkscape.org/) -->

<svg
   width="129.20399mm"
   height="129.20399mm"
   viewBox="0 0 129.20399 129.20399"
   version="1.1"
   id="svg5"
   xmlns:xlink="http://www.w3.org/1999/xlink"
   xmlns="http://www.w3.org/2000/svg"
   xmlns:svg="http://www.w3.org/2000/svg">
  <defs
     id="defs2">
    <linearGradient
       id="linearGradient5908">
      <stop
         style="stop-color:#ffffff;stop-opacity:1;"
         offset="0"
         id="stop5904" />
      <stop
         style="stop-color:#a4a4a4;stop-opacity:1"
         offset="1"
         id="stop5906" />
    </linearGradient>
    <rect
       x="354.25745"
       y="94.069817"
       width="583.4646"
       height="330.61346"
       id="rect24666" />
    <rect
       x="211.92389"
       y="364.42371"
       width="48.507694"
       height="61.436584"
       id="rect4362" />
    <linearGradient
       xlink:href="#linearGradient5908"
       id="linearGradient5910"
       x1="11.196554"
       y1="19.476591"
       x2="111.71062"
       y2="108.68599"
       gradientUnits="userSpaceOnUse"
       gradientTransform="matrix(0.94815123,0,0,0.94552111,4.7910342,3.0117133)" />
  </defs>
  <g
     id="layer1"
     transform="translate(-32.285779,-73.888417)"
     style="display:none">
    <circle
       style="fill:#3c2f8b;fill-opacity:1;stroke:#fcfcfc;stroke-width:1.204;stroke-miterlimit:4;stroke-dasharray:none;stroke-opacity:1"
       id="path956"
       cx="96.887779"
       cy="138.49042"
       r="64" />
    <g
       id="g26118"
       transform="translate(-3.5698566,1.2706953)"
       style="fill:#ffffff;fill-opacity:1">
      <text
         xml:space="preserve"
         transform="matrix(2.1095748,0,0,2.1095748,-398.07193,-675.50221)"
         id="text4360"
         style="font-style:normal;font-weight:normal;font-size:40px;line-height:1.25;font-family:sans-serif;white-space:pre;shape-inside:url(#rect4362);fill:#ffffff;fill-opacity:1;stroke:none"><tspan
           x="211.92383"
           y="399.81445"
           id="tspan3949">G</tspan></text>
      <text
         xml:space="preserve"
         transform="matrix(0.935812,0,0,2.531966,-211.73707,-158.54653)"
         id="text24664"
         style="font-style:normal;font-weight:normal;font-size:40px;line-height:1.25;font-family:sans-serif;white-space:pre;shape-inside:url(#rect24666);fill:#ffffff;fill-opacity:1;stroke:none"><tspan
           x="354.25781"
           y="129.46094"
           id="tspan3951">&gt;</tspan></text>
    </g>
  </g>
  <g
     id="layer2"
     style="display:none">
    <circle
       style="fill:url(#linearGradient5910);fill-opacity:1;stroke:none;stroke-width:0.629647;stroke-opacity:1"
       id="path5390"
       cx="64.601997"
       cy="64.601997"
       r="61.600964" />
    <path
       style="fill:#393e48;fill-opacity:1;stroke:none;stroke-width:0.206;stroke-opacity:1"
       d="m 63.610467,121.68345 c -1.260439,-0.54819 -1.300826,-0.80465 -1.300826,-8.25789 v -6.72586 l 0.700402,-0.70039 c 0.587386,-0.5874 0.84882,-0.70041 1.620228,-0.70041 1.051913,0 1.815281,0.48572 2.19176,1.39462 0.173044,0.41779 0.225083,2.50132 0.182378,7.3029 l -0.05981,6.71834 -0.515003,0.45088 c -0.969473,0.84876 -1.734973,0.98937 -2.819181,0.51781 z m -2.639835,-17.94837 c -2.84743,-0.38336 -4.010756,-0.6016 -6.030373,-1.13125 -8.622815,-2.26137 -15.9542,-7.419996 -21.933207,-15.432999 -0.803134,-1.076348 -1.536981,-2.044558 -1.630761,-2.151567 -0.102235,-0.116625 -0.344329,-0.008 -0.604366,0.271119 -0.640552,0.687538 -4.238395,3.306779 -4.874456,3.548607 -0.722846,0.274825 -1.305917,0.10975 -1.974738,-0.55907 -0.548354,-0.548351 -0.732015,-1.623968 -0.417311,-2.444059 0.137551,-0.358469 2.889482,-2.278578 4.848586,-3.383025 l 1.167537,-0.658194 -0.911908,-2.176575 c -4.193072,-10.008208 -4.053213,-22.505851 0.35805,-31.996283 0.446833,-0.961347 0.73872,-1.773453 0.648622,-1.804682 -0.09013,-0.03123 -1.442071,-0.901722 -3.004383,-1.934422 -3.020401,-1.996505 -3.531959,-2.563046 -3.311171,-3.667011 0.186744,-0.933733 1.40899,-1.940072 2.171158,-1.787638 0.930969,0.186194 5.300293,3.601404 5.479608,4.28304 0.146978,0.558699 0.1649,0.546349 1.334394,-0.919558 0.651986,-0.817224 1.373115,-1.708053 1.602522,-1.979619 l 0.417115,-0.493756 0.505494,0.474886 0.505494,0.474884 -1.083142,1.254878 c -4.416044,5.116199 -7.335462,13.965538 -7.345924,22.266959 -0.0072,5.799241 1.249616,11.583215 3.591759,16.528177 2.570215,5.426461 6.949059,9.618252 13.393328,12.821157 6.212947,3.087935 11.932776,4.284528 19.444789,4.067855 7.104627,-0.204924 11.596663,-1.49328 17.326374,-4.969386 2.751165,-1.669078 2.894863,-1.921728 0.350703,-0.616585 -4.476639,2.296485 -8.022112,3.077781 -13.843762,3.050678 -3.392866,-0.0158 -4.260549,-0.09075 -6.516537,-0.562839 -6.385412,-1.336233 -11.669273,-4.205937 -16.364093,-8.887479 -5.943472,-5.926658 -8.784166,-12.782417 -8.794876,-21.225581 -0.0052,-4.456702 0.632863,-7.98434 2.140912,-11.828168 0.750123,-1.911978 3.059619,-5.820201 3.392038,-5.740176 0.280618,0.06756 4.240288,3.555067 12.913641,11.373799 6.037979,5.443039 6.151513,5.559991 6.02939,6.210974 -0.332646,1.773159 0.889237,4.054197 2.638718,4.925995 1.143613,0.569887 2.999706,0.702813 3.925232,0.281117 0.480867,-0.219096 0.642766,-0.12213 2.327211,1.393769 0.995705,0.896083 2.549614,2.276679 3.453142,3.067986 0.903517,0.791316 4.196745,3.756256 7.318274,6.588767 3.12154,2.83251 6.414757,5.797529 7.318274,6.588922 3.668777,3.213489 5.651193,5.103372 5.540732,5.282097 -0.419164,0.678226 -4.542606,4.029571 -6.783228,5.513105 -4.247117,2.812041 -9.145704,4.787861 -14.109811,5.691101 -1.858276,0.33813 -9.034984,0.60198 -10.60905,0.39005 z M 102.34881,88.217835 c -0.66441,-0.443857 -1.89791,-1.386475 -2.741152,-2.094707 -1.38586,-1.163994 -1.55408,-1.251865 -1.751004,-0.914621 -0.410192,0.702463 -2.585013,3.610334 -2.700203,3.610334 -0.107699,0 -3.017391,-2.611478 -8.838772,-7.932879 -1.364526,-1.247317 -3.315248,-3.012348 -4.334959,-3.922282 -1.0197,-0.909932 -3.697728,-3.319305 -5.951171,-5.354171 -2.253453,-2.034865 -4.675459,-4.209602 -5.382226,-4.832751 -1.282645,-1.13088 -1.28487,-1.134788 -1.182024,-2.083152 0.189941,-1.751492 -0.604459,-3.326641 -2.182437,-4.327365 -0.77888,-0.493958 -1.15598,-0.593516 -2.248083,-0.593516 -0.721719,0 -1.490416,0.09538 -1.708224,0.211939 -0.341183,0.182593 -0.916793,-0.251849 -4.157973,-3.138131 -2.069088,-1.842532 -5.384233,-4.785373 -7.366991,-6.539648 -6.531758,-5.779066 -7.517415,-6.66878 -7.672444,-6.925593 -0.188245,-0.311857 1.936804,-2.222623 4.273421,-3.842502 3.183926,-2.207274 6.871556,-3.747929 11.330066,-4.733574 1.788284,-0.39534 2.671364,-0.455413 6.695024,-0.45544 4.042761,-2.7e-5 4.911407,0.05961 6.798025,0.46677 2.970784,0.641125 5.358064,1.468695 7.867259,2.727254 2.646013,1.327182 3.854714,2.096319 5.65377,3.597678 l 1.414039,1.180068 -1.236008,-1.280023 C 79.283128,33.125689 69.419172,29.391734 57.103025,29.751898 c -4.129992,0.120774 -6.385742,0.457449 -9.266771,1.383089 -2.977718,0.956701 -6.646411,3.005194 -9.084839,5.072716 -0.670332,0.568373 -0.855742,0.63632 -1.181372,0.432955 -0.358827,-0.224086 -0.316981,-0.312401 0.589113,-1.243298 3.890496,-3.996986 11.175761,-8.02678 17.02091,-9.415002 4.637566,-1.101418 10.312952,-1.367076 15.163608,-0.709785 6.584055,0.892171 13.639954,4.079876 19.158086,8.655212 2.189412,1.815343 5.875965,5.677327 7.303302,7.65082 l 1.212996,1.677157 0.32537,-0.640622 c 0.31762,-0.625366 1.675412,-1.774527 3.902012,-3.302477 1.40841,-0.966482 2.28027,-1.009839 3.13424,-0.155862 0.64263,0.642618 0.81012,1.714355 0.39048,2.498453 -0.18186,0.339842 -5.45491,3.972608 -6.058242,4.173716 -0.12166,0.04055 0.11352,0.775829 0.544722,1.703038 2.46873,5.308477 3.4505,10.018453 3.45324,16.566734 0.002,5.919603 -0.93524,10.75515 -3.04134,15.683513 l -0.821572,1.922499 1.066672,0.621529 c 3.2289,1.881436 5.2742,3.610436 5.2742,4.458587 0,1.050851 -1.18503,2.239968 -2.2323,2.239968 -0.21933,0 -0.94235,-0.363147 -1.60673,-0.807003 z M 90.069123,56.893878 c 1.01878,-0.462439 1.779178,-1.221902 2.359175,-2.356307 0.639403,-1.250565 0.463493,-3.308122 -0.383546,-4.486478 -1.343314,-1.868736 -3.450948,-2.607985 -5.418402,-1.900499 -1.475743,0.530669 -2.378649,1.342518 -2.769791,2.490453 -0.697671,2.047528 -0.326831,3.797273 1.109104,5.233212 1.442734,1.442726 3.337382,1.821259 5.10346,1.019619 z M 4.1684637,66.248284 C 2.5376091,65.363391 2.6381678,62.62533 4.3274453,61.919511 c 1.0945246,-0.457325 17.5661697,-0.428767 18.5374637,0.03216 0.666359,0.316209 1.334549,1.332777 1.334549,2.030335 0,0.713105 -0.622846,1.773813 -1.275101,2.171483 -0.656249,0.4001 -1.011216,0.415461 -9.436939,0.408259 -7.3431705,-0.0062 -8.8459727,-0.05684 -9.3189543,-0.313451 z m 102.1764763,0 c -1.16564,-0.632476 -1.58102,-2.623195 -0.76405,-3.661805 0.73515,-0.934598 1.34342,-0.987573 10.56249,-0.919945 l 8.61653,0.06322 0.70501,0.769478 c 1.20809,1.318566 0.89358,3.137545 -0.65431,3.7843 -1.04517,0.436709 -17.6543,0.40502 -18.46567,-0.03519 z M 63.496736,22.988113 c -1.138068,-0.617508 -1.187168,-0.938403 -1.18633,-7.752831 7.87e-4,-5.8750022 0.02494,-6.2813952 0.412096,-6.9163932 0.909219,-1.4912422 3.061699,-1.4006576 3.98824,0.167841 0.485223,0.821439 0.506467,12.4472822 0.02463,13.4627682 -0.579924,1.222085 -2.038418,1.689824 -3.238602,1.038615 z"
       id="path876-3" />
  </g>
  <g
     id="layer3">
    <path
       style="fill:#1595c9;stroke-width:0.225869;fill-opacity:1"
       d="M 60.830856,126.95037 C 46.779686,126.00503 34.023247,120.69274 23.211982,111.28438 19.483815,108.03999 14.631379,102.22052 11.689629,97.465766 6.9931264,89.874799 4.0163158,81.646219 2.6293275,72.420978 2.1451553,69.200647 2.0864478,60.503236 2.5272788,57.30413 4.8048671,40.775943 12.285241,27.159833 24.838137,16.692923 34.582082,8.5681882 47.428183,3.3906076 60.548519,2.2999626 l 1.863418,-0.1548982 v 5.679231 5.6792326 l -8.415143,-0.02872 -8.415143,-0.02872 -2.062291,0.907524 c -2.712341,1.19359 -4.925118,2.333844 -6.17889,3.184016 l -1.016406,0.689219 21.747149,9.39e-4 c 23.948947,0.0011 22.868558,-0.06255 23.75967,1.399055 0.887893,1.456314 0.35898,3.346409 -1.170035,4.181205 -0.702108,0.383331 -2.199502,0.409631 -26.55743,0.466446 l -25.813364,0.06021 C 17.451569,35.920806 16.981126,37.98838 12.889141,48.55173 c -0.385023,1.003502 -0.653533,2.092112 -0.732635,2.371625 l -0.143811,0.508205 12.494488,9.39e-4 c 11.986105,9.39e-4 12.523854,0.01875 13.21629,0.440956 1.496848,0.91269 1.991469,2.520409 1.232874,4.007375 -0.869011,1.703415 -0.376114,1.64929 -15.019421,1.64929 -7.148062,0 -13.050642,0.08764 -13.116845,0.194755 -3.0400847,13.372029 2.721459,29.107081 9.121656,37.386225 l 1.574277,2.3886 15.474585,0.06104 15.474585,0.06104 0.718455,0.718541 c 0.586973,0.587041 0.737006,0.942111 0.819762,1.940069 0.09294,1.12069 0.04175,1.28932 -0.619847,2.04286 -0.412557,0.46988 -1.075652,0.91982 -1.54958,1.05144 -0.512019,0.14222 -5.400557,0.23431 -12.799482,0.24114 l -11.971063,0.011 1.242281,1.13759 c 0.68325,0.62568 1.897309,1.68851 2.697906,2.36185 7.611661,8.03511 24.16504,12.06599 31.408321,12.06599 v 3.9527 c 0,3.03263 -0.06573,3.94352 -0.282337,3.91325 -0.155285,-0.0217 -0.739721,-0.0703 -1.298744,-0.10784 z m 9.938233,-4.13397 v -3.82954 l 0.847011,-0.14469 c 8.393349,-1.43383 15.953448,-4.27906 22.321542,-8.40067 l 2.0092,-1.30041 -3.459284,-0.11294 -3.459296,-0.11294 -0.758775,-0.82879 c -0.98377,-1.07454 -1.194808,-2.15248 -0.639977,-3.26892 0.230211,-0.46324 0.705335,-1.05209 1.055838,-1.30857 0.606325,-0.44366 0.976412,-0.4695 7.618169,-0.53201 l 6.980893,-0.0657 1.86833,-2.14428 c 3.57799,-4.106461 6.08565,-7.682247 9.11965,-14.57902 l 0.70203,-1.84969 c 0.38611,-1.017328 0.80649,-2.17711 0.93418,-2.577289 l 0.23216,-0.727598 -10.47088,-0.06292 -10.470886,-0.06292 -0.604148,-0.564674 c -1.750305,-1.635912 -1.5609,-4.061836 0.400836,-5.133817 0.667209,-0.364597 1.712641,-0.405838 11.820728,-0.466296 l 11.08878,-0.06633 0.27941,-2.305298 c 0.15368,-1.267917 0.32885,-2.483171 0.38929,-2.700578 0.10278,-0.369719 -0.3035,-0.395287 -6.28613,-0.39562 -7.14504,-4.52e-4 -7.48181,-0.06223 -8.48081,-1.557664 -0.92002,-1.37718 -0.46473,-3.485407 0.93735,-4.3404 0.63568,-0.387629 1.23157,-0.424568 6.90709,-0.428153 3.41628,-0.0026 6.41702,-0.05916 6.66833,-0.126712 0.4351,-0.11692 0.44892,-0.232764 0.28943,-2.42501 -0.75901,-10.432346 -4.42105,-20.213344 -10.73752,-28.679 C 104.32887,26.969768 97.861916,21.16454 92.226657,17.673853 86.537988,14.150082 79.077079,11.4251 72.632507,10.517395 L 70.769089,10.254936 V 6.4493645 2.6438192 h 0.820061 c 3.204734,0 10.107372,1.7010898 15.668378,3.8613195 8.288111,3.2195981 14.768102,7.5052663 21.470442,14.1998943 5.52985,5.523474 8.54298,9.675591 11.7256,16.157948 3.68861,7.512971 5.63933,14.631016 6.34475,23.151575 0.88035,10.633623 -1.56503,22.815562 -6.46102,32.186346 -0.71397,1.366508 -1.52939,2.941937 -1.81203,3.500969 -0.28265,0.559022 -1.03281,1.778715 -1.667,2.710428 -0.63421,0.931705 -1.52416,2.253051 -1.97769,2.936301 -1.3968,2.10437 -4.8477,6.09882 -7.32158,8.47481 -8.861436,8.51078 -20.198672,14.14902 -32.922927,16.37324 -1.413657,0.24711 -2.862042,0.44928 -3.218632,0.44928 H 70.769089 Z M 61.558634,72.23112 c -3.363536,-1.247506 -5.47102,-4.207328 -5.471037,-7.683711 -9e-6,-1.465911 0.539678,-0.941983 -5.47732,-5.317309 -2.205043,-1.603422 -4.009172,-2.979766 -4.009172,-3.058543 0,-0.07878 0.769693,-1.384021 1.710438,-2.900544 l 1.710439,-2.757317 1.056461,0.763893 c 0.581048,0.420144 1.97122,1.420439 3.089274,2.222877 1.118054,0.802441 2.754462,1.987894 3.636474,2.634345 l 1.60366,1.175364 1.332635,-0.624163 c 1.176829,-0.551183 1.596737,-0.624162 3.591339,-0.624162 2.626256,0 3.78515,0.43062 5.448756,2.024638 l 0.975344,0.934543 0.853593,-0.332141 c 0.469472,-0.182678 3.678714,-1.484319 7.131638,-2.89253 9.531003,-3.887056 26.514614,-10.689159 26.688864,-10.689159 0.2517,0 2.64201,5.18924 2.56513,5.568739 -0.0759,0.374736 -0.0205,0.35109 -14.187413,6.053844 -5.031233,2.025275 -11.688729,4.722657 -14.794428,5.994185 -3.105699,1.271528 -5.763789,2.357988 -5.906857,2.414365 -0.143076,0.05634 -0.32094,0.425797 -0.395262,0.820931 -0.457674,2.433376 -2.440154,4.863388 -4.878396,5.979658 -1.721442,0.788108 -4.578362,0.921153 -6.27416,0.292197 z m 3.773446,-6.222675 c 1.152346,-0.595901 1.254293,-1.854198 0.232977,-2.875521 -0.577214,-0.577206 -0.80209,-0.663565 -1.410899,-0.541804 -1.643101,0.328615 -2.204958,2.162367 -0.984257,3.212366 0.718259,0.617824 1.263776,0.66954 2.162179,0.204959 z"
       id="path867" />
  </g>
</svg>
